<svg width="32" height="32" viewBox="0 0 32 32" fill="none" xmlns="http://www.w3.org/2000/svg">
<rect width="32" height="32" rx="4" fill="#FEF0EF"/>
<path d="M19.6464 11.6464C19.8417 11.4512 20.1582 11.4512 20.3535 11.6464C20.5487 11.8417 20.5487 12.1582 20.3535 12.3535L12.3535 20.3535C12.1582 20.5487 11.8417 20.5487 11.6464 20.3535C11.4512 20.1582 11.4512 19.8417 11.6464 19.6464L19.6464 11.6464Z" fill="#9C1E1C"/>
<path d="M11.6464 11.6464C11.8417 11.4512 12.1582 11.4512 12.3535 11.6464L20.3535 19.6464C20.5487 19.8417 20.5487 20.1582 20.3535 20.3535C20.1582 20.5487 19.8417 20.5487 19.6464 20.3535L11.6464 12.3535C11.4512 12.1582 11.4512 11.8417 11.6464 11.6464Z" fill="#9C1E1C"/>
</svg>
