<svg width="32" height="32" viewBox="0 0 32 32" fill="none" xmlns="http://www.w3.org/2000/svg">
<rect width="32" height="32" rx="4" fill="#ECFDF3"/>
<g clip-path="url(#clip0_203_12837)">
<path d="M8.83398 16.0004C8.83399 14.583 9.25418 13.1972 10.0417 12.0186C10.8291 10.8402 11.9484 9.92175 13.2578 9.37932C14.5673 8.83689 16.0089 8.69524 17.3991 8.97176C18.7892 9.24833 20.0662 9.93051 21.0684 10.9327C22.0706 11.9349 22.7527 13.2119 23.0293 14.602C23.3058 15.9922 23.1642 17.4337 22.6217 18.7432C22.0793 20.0527 21.1609 21.172 19.9824 21.9594C18.8039 22.7469 17.4181 23.1671 16.0007 23.1671C15.7245 23.1671 15.5007 22.9432 15.5007 22.6671C15.5007 22.3909 15.7245 22.1671 16.0007 22.1671C17.2202 22.1671 18.4124 21.8055 19.4264 21.128C20.4405 20.4504 21.2312 19.4872 21.6979 18.3604C22.1647 17.2336 22.2868 15.9935 22.0488 14.7973C21.8109 13.6011 21.2237 12.5021 20.3613 11.6397C19.4989 10.7773 18.4 10.1902 17.2038 9.95223C16.0076 9.71429 14.7674 9.8364 13.6406 10.3031C12.5139 10.7699 11.5506 11.5606 10.873 12.5746C10.1956 13.5887 9.83399 14.7809 9.83398 16.0004C9.83398 16.2766 9.61013 16.5004 9.33398 16.5004C9.05784 16.5004 8.83398 16.2766 8.83398 16.0004Z" fill="#13661D"/>
<path d="M15.6471 15.6469C15.8424 15.4516 16.1589 15.4516 16.3542 15.6469C16.5494 15.8422 16.5494 16.1587 16.3542 16.3539L9.6875 23.0206C9.49224 23.2159 9.17573 23.2159 8.98047 23.0206C8.78521 22.8253 8.78521 22.5088 8.98047 22.3136L15.6471 15.6469Z" fill="#13661D"/>
<path d="M8.83398 18.6671C8.83398 18.3909 9.05784 18.1671 9.33398 18.1671C9.61013 18.1671 9.83398 18.3909 9.83398 18.6671V22.1671H13.334C13.6101 22.1671 13.834 22.3909 13.834 22.6671C13.834 22.9432 13.6101 23.1671 13.334 23.1671H9.33398C9.05784 23.1671 8.83398 22.9432 8.83398 22.6671V18.6671Z" fill="#13661D"/>
</g>
<defs>
<clipPath id="clip0_203_12837">
<rect width="16" height="16" fill="white" transform="translate(8 8)"/>
</clipPath>
</defs>
</svg>
