<svg width="32" height="32" viewBox="0 0 32 32" fill="none" xmlns="http://www.w3.org/2000/svg">
<rect width="32" height="32" rx="4" fill="#ECFDF3"/>
<g clip-path="url(#clip0_623_15038)">
<path d="M16.0004 8.83398C16.2766 8.83398 16.5004 9.05784 16.5004 9.33398C16.5004 9.61013 16.2766 9.83398 16.0004 9.83398C14.7809 9.83399 13.5887 10.1956 12.5746 10.873C11.5606 11.5506 10.7699 12.5139 10.3031 13.6406C9.8364 14.7674 9.71429 16.0076 9.95223 17.2038C10.1902 18.4 10.7773 19.4989 11.6397 20.3613C12.5021 21.2237 13.6011 21.8109 14.7973 22.0488C15.9935 22.2868 17.2336 22.1647 18.3604 21.6979C19.4872 21.2312 20.4504 20.4405 21.128 19.4264C21.8055 18.4124 22.1671 17.2202 22.1671 16.0007C22.1671 15.7245 22.3909 15.5007 22.6671 15.5007C22.9432 15.5007 23.1671 15.7245 23.1671 16.0007C23.1671 17.4181 22.7469 18.8039 21.9594 19.9824C21.172 21.1609 20.0527 22.0793 18.7432 22.6217C17.4337 23.1642 15.9922 23.3058 14.602 23.0293C13.2119 22.7527 11.9349 22.0706 10.9327 21.0684C9.93051 20.0662 9.24833 18.7892 8.97176 17.3991C8.69524 16.0089 8.83689 14.5673 9.37932 13.2578C9.92175 11.9484 10.8402 10.8291 12.0186 10.0417C13.1972 9.25418 14.583 8.83399 16.0004 8.83398Z" fill="#13661D"/>
<path d="M22.3136 8.98047C22.5088 8.78521 22.8253 8.78521 23.0206 8.98047C23.2159 9.17573 23.2159 9.49224 23.0206 9.6875L16.3539 16.3542C16.1587 16.5494 15.8422 16.5494 15.6469 16.3542C15.4516 16.1589 15.4516 15.8424 15.6469 15.6471L22.3136 8.98047Z" fill="#13661D"/>
<path d="M22.1671 13.334V9.83398H18.6671C18.3909 9.83398 18.1671 9.61013 18.1671 9.33398C18.1671 9.05784 18.3909 8.83398 18.6671 8.83398H22.6671C22.9432 8.83398 23.1671 9.05784 23.1671 9.33398V13.334C23.1671 13.6101 22.9432 13.834 22.6671 13.834C22.3909 13.834 22.1671 13.6101 22.1671 13.334Z" fill="#13661D"/>
</g>
<defs>
<clipPath id="clip0_623_15038">
<rect width="16" height="16" fill="white" transform="translate(8 8)"/>
</clipPath>
</defs>
</svg>
