<svg width="20" height="20" viewBox="0 0 20 20" fill="none" xmlns="http://www.w3.org/2000/svg">
<path d="M11.875 18.3332V14.9998C11.875 14.9768 11.8757 14.9536 11.8783 14.9307C11.976 14.0499 11.7235 13.1659 11.1751 12.4697C11.0272 12.2817 11 12.0258 11.1043 11.8105C11.2089 11.5952 11.4273 11.4582 11.6667 11.4582C13.933 11.4581 16.0417 9.96941 16.0417 7.49984C16.0417 7.48654 16.0416 7.47323 16.0425 7.45996C16.1 6.5616 15.8488 5.67929 15.3247 4.94694C15.2189 4.79897 15.1832 4.61184 15.2262 4.43506C15.3854 3.78136 15.4227 3.10613 15.3402 2.44206C14.9835 2.58637 14.4395 2.86801 13.7085 3.41618C13.5681 3.5215 13.3894 3.56354 13.217 3.53092C11.0939 3.12882 8.90614 3.12885 6.78305 3.53092C6.61053 3.5636 6.43199 3.52153 6.29151 3.41618C5.5546 2.86351 5.00748 2.58208 4.65089 2.4388C4.56164 3.10066 4.60131 3.77351 4.77133 4.42529C4.81819 4.6049 4.78255 4.79603 4.67449 4.94694C4.15194 5.676 3.89821 6.56408 3.95672 7.45915C3.9576 7.4727 3.95834 7.48626 3.95834 7.49984C3.95834 9.96947 6.06698 11.4582 8.33334 11.4582C8.57319 11.4582 8.79227 11.5953 8.89649 11.8114C9.00067 12.0274 8.9717 12.2844 8.82244 12.4722C8.5479 12.8171 8.34454 13.2099 8.22592 13.6286C8.10673 14.0493 8.07159 14.4927 8.12094 14.9298C8.12356 14.9531 8.12501 14.9765 8.12501 14.9998V18.3332C8.12501 18.6783 7.84511 18.9581 7.50001 18.9582C7.15483 18.9582 6.87501 18.6783 6.87501 18.3332V15.0251C6.81501 14.4433 6.86311 13.8523 7.02312 13.2876C7.08855 13.0567 7.17312 12.8325 7.27377 12.6162C4.91262 12.2082 2.72937 10.446 2.70916 7.54053L2.7002 7.31917C2.6779 6.30833 2.95527 5.31417 3.4961 4.4611C3.28757 3.48539 3.30927 2.47751 3.56202 1.50863L3.59701 1.40934C3.69666 1.18843 3.91795 1.0415 4.16668 1.0415V1.6665C4.16668 1.0415 4.16621 1.0415 4.16668 1.0415H4.18377C4.19023 1.04166 4.19769 1.04194 4.20574 1.04232C4.22185 1.04308 4.24112 1.04429 4.26352 1.04639C4.30881 1.05063 4.36714 1.0584 4.43767 1.07161C4.57903 1.09812 4.77022 1.14751 5.01059 1.23763C5.44981 1.40234 6.05242 1.7041 6.81886 2.25407C8.92149 1.88796 11.0777 1.88801 13.1803 2.25407C13.9469 1.70401 14.5493 1.40237 14.9886 1.23763C15.229 1.14748 15.4201 1.09814 15.5615 1.07161C15.6322 1.05837 15.6903 1.05064 15.7357 1.04639C15.7583 1.04426 15.778 1.04308 15.7943 1.04232C15.8023 1.04194 15.8098 1.04166 15.8163 1.0415H15.8325C15.8329 1.04264 15.8332 1.06245 15.8333 1.40609L15.8325 1.0415C16.1206 1.04158 16.3722 1.23853 16.4404 1.51839C16.6751 2.48223 16.693 3.48411 16.499 4.45459C17.0763 5.3623 17.3523 6.4228 17.2917 7.49984L17.2827 7.81071C17.1334 10.5574 15.0096 12.2235 12.7205 12.617C13.0655 13.3626 13.2086 14.1921 13.125 15.0218V18.3332C13.125 18.6783 12.8451 18.9581 12.5 18.9582C12.1548 18.9582 11.875 18.6783 11.875 18.3332Z" fill="#4D5158"/>
<path d="M1.6665 12.7082C2.31153 12.7082 2.7946 13.038 3.16146 13.3551C3.34437 13.5133 3.52608 13.6931 3.6888 13.8507C3.85847 14.0151 4.0188 14.1675 4.18929 14.304C4.52342 14.5717 4.87486 14.7647 5.31885 14.8232C5.76763 14.8824 6.3806 14.8126 7.24674 14.4285C7.56224 14.2888 7.93123 14.4313 8.07113 14.7467C8.2109 15.0622 8.0684 15.4312 7.75293 15.5711C6.74002 16.0203 5.89212 16.159 5.15527 16.0618C4.41374 15.9641 3.85405 15.6363 3.40804 15.279C3.18857 15.1031 2.99183 14.9168 2.81885 14.7492C2.63886 14.5748 2.49202 14.4291 2.34359 14.3008C2.04777 14.0451 1.85478 13.9582 1.6665 13.9582C1.32133 13.9582 1.0415 13.6783 1.0415 13.3332C1.0415 12.988 1.32133 12.7082 1.6665 12.7082Z" fill="#4D5158"/>
</svg>
