<svg width="20" height="20" viewBox="0 0 20 20" fill="none" xmlns="http://www.w3.org/2000/svg">
<path d="M17.7082 11.6665C17.7082 10.5062 17.2469 9.39371 16.4264 8.57324C15.606 7.75277 14.4935 7.2915 13.3332 7.2915C12.1728 7.2915 11.0604 7.75277 10.2399 8.57324C9.41944 9.39371 8.95817 10.5062 8.95817 11.6665V16.8748H11.0415V11.6665C11.0415 11.0587 11.2831 10.476 11.7129 10.0462C12.1427 9.61645 12.7254 9.37484 13.3332 9.37484C13.941 9.37484 14.5237 9.61645 14.9535 10.0462C15.3832 10.476 15.6248 11.0587 15.6248 11.6665V16.8748H17.7082V11.6665ZM18.9582 17.4998C18.9582 17.845 18.6783 18.1248 18.3332 18.1248H14.9998C14.6547 18.1248 14.3748 17.845 14.3748 17.4998V11.6665C14.3748 11.3902 14.265 11.1254 14.0697 10.93C13.8743 10.7347 13.6094 10.6248 13.3332 10.6248C13.0569 10.6248 12.792 10.7347 12.5967 10.93C12.4013 11.1254 12.2915 11.3902 12.2915 11.6665V17.4998C12.2915 17.845 12.0117 18.1248 11.6665 18.1248H8.33317C7.98799 18.1248 7.70817 17.845 7.70817 17.4998V11.6665C7.70817 10.1747 8.30041 8.74353 9.35531 7.68864C10.4102 6.63375 11.8413 6.0415 13.3332 6.0415C14.825 6.0415 16.2561 6.63375 17.311 7.68864C18.3659 8.74353 18.9582 10.1747 18.9582 11.6665V17.4998Z" fill="#4D5158"/>
<path d="M4.99984 6.87484C5.34502 6.87484 5.62484 7.15466 5.62484 7.49984V17.4998C5.62484 17.845 5.34502 18.1248 4.99984 18.1248H1.6665C1.32133 18.1248 1.0415 17.845 1.0415 17.4998V7.49984C1.0415 7.15466 1.32133 6.87484 1.6665 6.87484H4.99984ZM2.2915 16.8748H4.37484V8.12484H2.2915V16.8748Z" fill="#4D5158"/>
<path d="M4.37484 3.33317C4.37484 2.75787 3.90847 2.2915 3.33317 2.2915C2.75787 2.2915 2.2915 2.75787 2.2915 3.33317C2.2915 3.90847 2.75787 4.37484 3.33317 4.37484C3.90847 4.37484 4.37484 3.90847 4.37484 3.33317ZM5.62484 3.33317C5.62484 4.59882 4.59882 5.62484 3.33317 5.62484C2.06752 5.62484 1.0415 4.59882 1.0415 3.33317C1.0415 2.06752 2.06752 1.0415 3.33317 1.0415C4.59882 1.0415 5.62484 2.06752 5.62484 3.33317Z" fill="#4D5158"/>
</svg>
