<svg width="20" height="20" viewBox="0 0 20 20" fill="none" xmlns="http://www.w3.org/2000/svg">
<path d="M11.4097 3.17474C12.7965 2.45241 14.6134 2.50973 16.0403 3.68418C16.1447 3.66443 16.269 3.63275 16.4105 3.58489C16.6537 3.50271 16.9119 3.39036 17.1527 3.27239C17.392 3.15522 17.6056 3.03731 17.7598 2.9485C17.8367 2.90424 17.8981 2.86709 17.9397 2.84189C17.9602 2.82942 17.9759 2.81974 17.9861 2.81341C17.991 2.81033 17.9952 2.80833 17.9975 2.8069L17.9999 2.80527L18.0862 2.7597C18.2938 2.6701 18.5373 2.69848 18.7193 2.84108C18.9272 3.004 19.0104 3.28057 18.9268 3.53118L18.3336 3.33343C18.8744 3.5137 18.9227 3.52968 18.9268 3.53118L18.926 3.532L18.9236 3.53932C18.922 3.54385 18.9197 3.55028 18.9171 3.55804C18.9117 3.57356 18.9042 3.59556 18.8943 3.62314C18.8743 3.6784 18.8446 3.75676 18.8064 3.85345C18.7299 4.04661 18.6171 4.31516 18.4678 4.61924C18.2099 5.14474 17.8291 5.80748 17.3269 6.37542C18.4739 15.0766 8.86337 21.3526 1.32184 16.3543C1.08766 16.199 0.985729 15.9068 1.07282 15.6397C1.15997 15.3726 1.41468 15.1965 1.69538 15.2092C3.00147 15.2686 4.29571 14.9579 5.37051 14.3295C1.59183 12.4941 -0.130271 7.69747 1.95091 3.8681C2.04944 3.68689 2.23156 3.56607 2.43675 3.54502C2.64184 3.52408 2.84392 3.60576 2.97712 3.76312C4.53693 5.60653 6.88082 6.74086 9.28897 6.86614C9.21204 5.18088 10.126 3.8436 11.4097 3.17474ZM15.4071 4.79014C14.3633 3.81599 13.0068 3.75246 11.9867 4.28395C10.9803 4.80848 10.2992 5.91185 10.6114 7.36907C10.6503 7.55048 10.6063 7.73986 10.4918 7.88584C10.3773 8.03167 10.2042 8.11955 10.0189 8.1251C7.31925 8.2045 4.624 7.15046 2.68415 5.27516C1.45964 8.60692 3.34111 12.5161 6.84675 13.5678C7.06449 13.6332 7.22983 13.8119 7.27806 14.0341C7.32628 14.2563 7.24974 14.4874 7.07868 14.6371C6.16029 15.4407 5.03432 15.9866 3.83568 16.2607C10.1636 18.7272 17.1881 13.379 16.05 6.26556C16.0184 6.06773 16.0834 5.8669 16.225 5.72519C16.5219 5.42825 16.7826 5.06457 17.0022 4.6998C16.9386 4.72381 16.8749 4.74734 16.8109 4.76898C16.5078 4.87146 16.1622 4.95859 15.8336 4.95859C15.6753 4.95859 15.5229 4.89815 15.4071 4.79014Z" fill="#4D5158"/>
</svg>
