<svg width="160" height="26" viewBox="0 0 160 26" fill="none" xmlns="http://www.w3.org/2000/svg">
<path fill-rule="evenodd" clip-rule="evenodd" d="M12.5651 9.11571C12.3653 8.9323 12.1041 8.83049 11.8329 8.83049H7.56619V4.63171C7.56619 4.21585 7.73141 3.81708 8.02548 3.52301C8.31954 3.22894 8.71832 3.06372 9.13417 3.06372H13.333V7.85531C13.333 8.09846 13.4354 8.33032 13.6152 8.49409L14.031 8.87273C14.3006 9.11826 14.6521 9.25433 15.0167 9.25433H19.1927V13.9607C19.1927 14.2246 19.285 14.4801 19.4536 14.6831L19.7577 15.0491C19.9517 15.2826 20.2394 15.4176 20.5429 15.4176H25.2833V19.5334C25.2833 20.4452 24.5441 21.1843 23.6323 21.1843H19.5165V17.0967C19.5165 16.7659 19.3976 16.446 19.1816 16.1954L18.4586 15.3572C18.2745 15.1437 18.0067 15.021 17.7247 15.021H13.426V10.3156C13.426 10.0548 13.3167 9.80592 13.1246 9.62956L12.5652 9.11571H12.5651ZM23.9635 3.06372C24.3135 3.06372 24.6492 3.20277 24.8967 3.45026C25.1441 3.69775 25.2832 4.03338 25.2832 4.38337V7.24295H21.104V3.06372H23.9635ZM7.63996 22.6152C6.91117 22.6152 6.32031 22.0243 6.32031 21.2955V16.0213H12.9142V22.6152H7.63996Z" fill="white"/>
<path d="M38.7039 5.08667L42.1729 10.8556H42.296L45.7804 5.08667H49.034L44.1805 12.9631L49.1109 20.8396H45.8034L42.296 15.1092H42.1729L38.6654 20.8396H35.3733L40.3499 12.9631L35.4348 5.08667H38.7039ZM58.8554 20.8396V5.08667H69.1009V7.47884H61.7091V11.7555H68.5702V14.1477H61.7091V18.4474H69.1625V20.8396H58.8554ZM92.5388 5.08667V20.8396H90.0005L82.5779 10.1095H82.4471V20.8396H79.5934V5.08667H82.1471L89.5621 15.8245H89.7005V5.08667H92.5388ZM102.537 7.47884V5.08667H115.106V7.47884H110.237V20.8396H107.406V7.47884H102.537ZM125.229 20.8396H122.183L127.729 5.08667H131.252L136.805 20.8396H133.759L129.552 8.31725H129.429L125.229 20.8396ZM125.329 14.663H133.636V16.9552H125.329V14.663ZM146.461 20.8396V5.08667H149.315V18.4474H156.253V20.8396H146.461Z" fill="white"/>
</svg>
