<svg width="164" height="32" viewBox="0 0 164 32" fill="none" xmlns="http://www.w3.org/2000/svg">
<path fill-rule="evenodd" clip-rule="evenodd" d="M12.5651 12.2763C12.3653 12.0929 12.1041 11.991 11.8329 11.991H7.56619V7.79227C7.56619 7.37641 7.73141 6.97764 8.02548 6.68357C8.31954 6.38951 8.71832 6.22428 9.13417 6.22428H13.333V11.0159C13.333 11.259 13.4354 11.4909 13.6152 11.6547L14.031 12.0333C14.3006 12.2788 14.6521 12.4149 15.0167 12.4149H19.1927V17.1212C19.1927 17.3851 19.285 17.6407 19.4536 17.8437L19.7577 18.2097C19.9517 18.4432 20.2394 18.5781 20.5429 18.5781H25.2833V22.694C25.2833 23.6057 24.5441 24.3449 23.6323 24.3449H19.5165V20.2573C19.5165 19.9264 19.3976 19.6065 19.1816 19.356L18.4586 18.5178C18.2745 18.3043 18.0067 18.1816 17.7247 18.1816H13.426V13.4762C13.426 13.2153 13.3167 12.9665 13.1246 12.7901L12.5652 12.2763H12.5651ZM23.9635 6.22428C24.3135 6.22428 24.6492 6.36333 24.8967 6.61082C25.1441 6.85831 25.2832 7.19394 25.2832 7.54393V10.4035H21.104V6.22428H23.9635ZM7.63996 25.7757C6.91117 25.7757 6.32031 25.1849 6.32031 24.4561V19.1818H12.9142V25.7757H7.63996Z" fill="#0063ED"/>
<path d="M38.7039 8.24707L42.1729 14.016H42.296L45.7804 8.24707H49.034L44.1805 16.1235L49.1109 24H45.8034L42.296 18.2696H42.1729L38.6654 24H35.3733L40.3499 16.1235L35.4348 8.24707H38.7039ZM58.8554 24V8.24707H69.1009V10.6392H61.7091V14.9159H68.5702V17.3081H61.7091V21.6078H69.1625V24H58.8554ZM92.5388 8.24707V24H90.0005L82.5779 13.2699H82.4471V24H79.5934V8.24707H82.1471L89.5621 18.9849H89.7005V8.24707H92.5388ZM102.537 10.6392V8.24707H115.106V10.6392H110.237V24H107.406V10.6392H102.537ZM125.229 24H122.183L127.729 8.24707H131.252L136.805 24H133.759L129.552 11.4776H129.429L125.229 24ZM125.329 17.8234H133.636V20.1156H125.329V17.8234ZM146.461 24V8.24707H149.315V21.6078H156.253V24H146.461Z" fill="#0063ED"/>
</svg>
