<svg width="26" height="26" viewBox="0 0 26 26" fill="none" xmlns="http://www.w3.org/2000/svg">
<path fill-rule="evenodd" clip-rule="evenodd" d="M9.40491 9.11578C9.20518 8.93237 8.94392 8.83055 8.67272 8.83055H4.40603V4.63178C4.40603 4.21592 4.57125 3.81714 4.86532 3.52308C5.15939 3.22901 5.55816 3.06379 5.97402 3.06379H10.1728V7.85538C10.1728 8.09853 10.2753 8.33039 10.455 8.49416L10.8708 8.87279C11.1404 9.11833 11.4919 9.2544 11.8565 9.2544H16.0325V13.9607C16.0325 14.2246 16.1248 14.4802 16.2935 14.6832L16.5976 15.0492C16.7915 15.2827 17.0792 15.4176 17.3827 15.4176H22.1231V19.5335C22.1231 20.4452 21.384 21.1844 20.4722 21.1844H16.3564V17.0968C16.3564 16.7659 16.2375 16.446 16.0214 16.1955L15.2985 15.3573C15.1144 15.1438 14.8465 15.0211 14.5646 15.0211H10.2659V10.3157C10.2659 10.0548 10.1566 9.80599 9.96449 9.62963L9.40508 9.11578H9.40491ZM20.8034 3.06379C21.1534 3.06379 21.489 3.20283 21.7365 3.45033C21.984 3.69782 22.123 4.03344 22.123 4.38344V7.24302H17.9438V3.06379H20.8034ZM4.4798 22.6152C3.75101 22.6152 3.16016 22.0244 3.16016 21.2956V16.0213H9.75405V22.6152H4.4798Z" fill="#0063ED"/>
</svg>
