<svg width="48" height="48" viewBox="0 0 48 48" fill="none" xmlns="http://www.w3.org/2000/svg">
<path d="M0 14C0 6.26801 6.26801 0 14 0H34C41.732 0 48 6.26801 48 14V34C48 41.732 41.732 48 34 48H14C6.26801 48 0 41.732 0 34V14Z" fill="#0F172A"/>
<path d="M14.25 31V15C14.25 14.5858 14.5858 14.25 15 14.25C15.4142 14.25 15.75 14.5858 15.75 15V31C15.75 31.3315 15.8818 31.6494 16.1162 31.8838C16.3506 32.1182 16.6685 32.25 17 32.25H33C33.4142 32.25 33.75 32.5858 33.75 33C33.75 33.4142 33.4142 33.75 33 33.75H17C16.2707 33.75 15.5714 33.4601 15.0557 32.9443C14.5399 32.4286 14.25 31.7293 14.25 31Z" fill="white"/>
<path d="M31.2725 16.8184C31.3729 16.4166 31.7799 16.1721 32.1816 16.2725C32.5834 16.3729 32.8279 16.7799 32.7275 17.1816C32.4628 18.2407 31.8129 20.0586 30.8975 21.6279C30.4398 22.4125 29.8954 23.1708 29.2715 23.7412C28.6511 24.3084 27.8845 24.75 27 24.75C25.5395 24.75 24.8306 23.5979 24.376 22.916C23.8306 22.0979 23.5395 21.75 23 21.75C22.654 21.75 22.3098 21.9153 21.9463 22.3164C21.5758 22.7253 21.2402 23.3233 20.9424 24.0381C20.3453 25.4711 19.9869 27.1442 19.7275 28.1816C19.6271 28.5834 19.2201 28.8279 18.8184 28.7275C18.4166 28.6271 18.1722 28.2201 18.2725 27.8184C18.5131 26.8558 18.9048 25.0288 19.5576 23.4619C19.8847 22.6769 20.2993 21.8997 20.835 21.3086C21.3777 20.7098 22.096 20.25 23 20.25C24.4605 20.25 25.1694 21.4021 25.624 22.084C26.1694 22.9021 26.4605 23.25 27 23.25C27.3654 23.25 27.7864 23.0665 28.2598 22.6338C28.7295 22.2043 29.1853 21.5873 29.6025 20.8721C30.437 19.4416 31.0372 17.7593 31.2725 16.8184Z" fill="white"/>
</svg>
