<svg width="48" height="48" viewBox="0 0 48 48" fill="none" xmlns="http://www.w3.org/2000/svg">
<path d="M0 14C0 6.26801 6.26801 0 14 0H34C41.732 0 48 6.26801 48 14V34C48 41.732 41.732 48 34 48H14C6.26801 48 0 41.732 0 34V14Z" fill="#0F172A"/>
<path d="M23 29.25C23.4142 29.25 23.75 29.5858 23.75 30C23.75 30.4142 23.4142 30.75 23 30.75H15C14.5858 30.75 14.25 30.4142 14.25 30C14.25 29.5858 14.5858 29.25 15 29.25H23Z" fill="white"/>
<path d="M32.4697 27.4697C32.7626 27.1768 33.2374 27.1768 33.5303 27.4697C33.8232 27.7626 33.8232 28.2374 33.5303 28.5303L29.5303 32.5303C29.2374 32.8232 28.7626 32.8232 28.4697 32.5303L26.4697 30.5303C26.1768 30.2374 26.1768 29.7626 26.4697 29.4697C26.7626 29.1768 27.2374 29.1768 27.5303 29.4697L29 30.9395L32.4697 27.4697Z" fill="white"/>
<path d="M28 23.25C28.4142 23.25 28.75 23.5858 28.75 24C28.75 24.4142 28.4142 24.75 28 24.75H15C14.5858 24.75 14.25 24.4142 14.25 24C14.25 23.5858 14.5858 23.25 15 23.25H28Z" fill="white"/>
<path d="M28 17.25C28.4142 17.25 28.75 17.5858 28.75 18C28.75 18.4142 28.4142 18.75 28 18.75H15C14.5858 18.75 14.25 18.4142 14.25 18C14.25 17.5858 14.5858 17.25 15 17.25H28Z" fill="white"/>
</svg>
