<svg width="20" height="20" viewBox="0 0 20 20" fill="none" xmlns="http://www.w3.org/2000/svg">
<rect width="20" height="20" rx="10" fill="#DC2626" fill-opacity="0.1"/>
<g clip-path="url(#clip0_26_2607)">
<path d="M16.1663 10C16.1663 6.59428 13.4054 3.83337 9.99967 3.83337C6.59392 3.83337 3.83301 6.59428 3.83301 10C3.83301 13.4058 6.59392 16.1667 9.99967 16.1667C13.4054 16.1667 16.1663 13.4058 16.1663 10ZM17.1663 10C17.1663 13.9581 13.9577 17.1667 9.99967 17.1667C6.04163 17.1667 2.83301 13.9581 2.83301 10C2.83301 6.042 6.04163 2.83337 9.99967 2.83337C13.9577 2.83337 17.1663 6.042 17.1663 10Z" fill="#DC2626"/>
<path d="M11.6462 7.64652C11.8414 7.45126 12.1579 7.45126 12.3532 7.64652C12.5485 7.84179 12.5485 8.15829 12.3532 8.35356L8.35319 12.3536C8.15793 12.5488 7.84142 12.5488 7.64616 12.3536C7.4509 12.1583 7.4509 11.8418 7.64616 11.6465L11.6462 7.64652Z" fill="#DC2626"/>
<path d="M7.64616 7.64652C7.84142 7.45126 8.15793 7.45126 8.35319 7.64652L12.3532 11.6465C12.5485 11.8418 12.5485 12.1583 12.3532 12.3536C12.1579 12.5488 11.8414 12.5488 11.6462 12.3536L7.64616 8.35356C7.4509 8.15829 7.4509 7.84179 7.64616 7.64652Z" fill="#DC2626"/>
</g>
<defs>
<clipPath id="clip0_26_2607">
<rect width="16" height="16" fill="white" transform="translate(2 2)"/>
</clipPath>
</defs>
</svg>
