<svg width="56" height="56" viewBox="0 0 56 56" fill="none" xmlns="http://www.w3.org/2000/svg">
<path d="M0 22C0 14.268 6.26801 8 14 8H34C41.732 8 48 14.268 48 22V42C48 49.732 41.732 56 34 56H14C6.26801 56 0 49.732 0 42V22Z" fill="#0063ED"/>
<path d="M27.25 41V39C27.25 38.138 26.9073 37.3116 26.2979 36.7021C25.6884 36.0927 24.862 35.75 24 35.75H18C17.138 35.75 16.3116 36.0927 15.7021 36.7021C15.0927 37.3116 14.75 38.138 14.75 39V41C14.75 41.4142 14.4142 41.75 14 41.75C13.5858 41.75 13.25 41.4142 13.25 41V39C13.25 37.7402 13.7508 36.5324 14.6416 35.6416C15.5324 34.7508 16.7402 34.25 18 34.25H24C25.2598 34.25 26.4676 34.7508 27.3584 35.6416C28.2492 36.5324 28.75 37.7402 28.75 39V41C28.75 41.4142 28.4142 41.75 28 41.75C27.5858 41.75 27.25 41.4142 27.25 41Z" fill="white"/>
<path d="M30.2461 27.0001C30.2461 26.2801 30.007 25.5802 29.5664 25.0108C29.1258 24.4415 28.5084 24.0342 27.8115 23.8536C27.4108 23.7495 27.1705 23.3404 27.2744 22.9395C27.3785 22.5388 27.7876 22.2985 28.1885 22.4024C29.2069 22.6665 30.109 23.2608 30.7529 24.0928C31.3969 24.925 31.7461 25.9478 31.7461 27.0001C31.7461 28.0523 31.3969 29.0751 30.7529 29.9073C30.109 30.7393 29.2069 31.3336 28.1885 31.5977C27.7877 31.7016 27.3786 31.4613 27.2744 31.0606C27.1705 30.6597 27.4107 30.2496 27.8115 30.1456C28.5083 29.9649 29.1258 29.5586 29.5664 28.9893C30.007 28.4199 30.2461 27.72 30.2461 27.0001Z" fill="white"/>
<path d="M33.25 41.0001V39.0001C33.2494 38.2802 33.0094 37.5808 32.5684 37.0118C32.1272 36.4428 31.5096 36.0366 30.8125 35.8566C30.4115 35.753 30.1699 35.3435 30.2734 34.9425C30.377 34.5415 30.7865 34.2999 31.1875 34.4034C32.2065 34.6665 33.1091 35.2611 33.7539 36.0929C34.3986 36.9246 34.7491 37.9468 34.75 38.9991V41.0001C34.7499 41.4143 34.4142 41.7501 34 41.7501C33.5858 41.7501 33.2501 41.4143 33.25 41.0001Z" fill="white"/>
<path d="M24.25 27C24.25 25.2051 22.7949 23.75 21 23.75C19.2051 23.75 17.75 25.2051 17.75 27C17.75 28.7949 19.2051 30.25 21 30.25C22.7949 30.25 24.25 28.7949 24.25 27ZM25.75 27C25.75 29.6234 23.6234 31.75 21 31.75C18.3766 31.75 16.25 29.6234 16.25 27C16.25 24.3766 18.3766 22.25 21 22.25C23.6234 22.25 25.75 24.3766 25.75 27Z" fill="white"/>
<path d="M32 12C32 5.37258 37.3726 0 44 0C50.6274 0 56 5.37258 56 12C56 18.6274 50.6274 24 44 24C37.3726 24 32 18.6274 32 12Z" fill="white"/>
<path d="M40.7074 16V14.6705L43.8139 11.794C44.0781 11.5384 44.2997 11.3082 44.4787 11.1037C44.6605 10.8991 44.7983 10.6989 44.892 10.5028C44.9858 10.304 45.0327 10.0895 45.0327 9.85938C45.0327 9.60369 44.9744 9.38352 44.858 9.19886C44.7415 9.01136 44.5824 8.8679 44.3807 8.76847C44.179 8.66619 43.9503 8.61506 43.6946 8.61506C43.4276 8.61506 43.1946 8.66903 42.9957 8.77699C42.7969 8.88494 42.6435 9.03977 42.5355 9.24148C42.4276 9.44318 42.3736 9.68324 42.3736 9.96165H40.6222C40.6222 9.39062 40.7514 8.89489 41.0099 8.47443C41.2685 8.05398 41.6307 7.72869 42.0966 7.49858C42.5625 7.26847 43.0994 7.15341 43.7074 7.15341C44.3324 7.15341 44.8764 7.2642 45.3395 7.4858C45.8054 7.70455 46.1676 8.00852 46.4261 8.39773C46.6847 8.78693 46.8139 9.23295 46.8139 9.7358C46.8139 10.0653 46.7486 10.3906 46.6179 10.7116C46.4901 11.0327 46.2614 11.3892 45.9318 11.7812C45.6023 12.1705 45.1378 12.6378 44.5384 13.1832L43.2642 14.4318V14.4915H46.929V16H40.7074Z" fill="#080C16"/>
</svg>
