<svg width="56" height="56" viewBox="0 0 56 56" fill="none" xmlns="http://www.w3.org/2000/svg">
<path d="M0 22C0 14.268 6.26801 8 14 8H34C41.732 8 48 14.268 48 22V42C48 49.732 41.732 56 34 56H14C6.26801 56 0 49.732 0 42V22Z" fill="#0063ED"/>
<path d="M29.0459 33.0962C29.46 33.0836 29.8058 33.409 29.8185 33.823C29.8311 34.237 29.5058 34.5829 29.0918 34.5955L29.082 34.5958C28.668 34.6085 28.3221 34.2831 28.3094 33.8691C28.2968 33.4551 28.6222 33.1092 29.0362 33.0965L29.0459 33.0962Z" fill="white"/>
<path d="M14.4687 39.2944L14.041 25.301C14.0188 24.572 14.2872 23.8642 14.7869 23.3329C15.2867 22.8017 15.9767 22.4905 16.7057 22.4682L30.6992 22.0406C31.1132 22.0279 31.4591 22.3533 31.4718 22.7673C31.4844 23.1813 31.1591 23.5272 30.745 23.5399L16.7516 23.9675C16.4202 23.9777 16.1065 24.1191 15.8794 24.3606C15.6522 24.602 15.5302 24.9238 15.5403 25.2551L15.968 39.2486C15.9781 39.58 16.1196 39.8936 16.361 40.1208C16.6025 40.3479 16.9242 40.47 17.2556 40.4598L31.2491 40.0322C31.5804 40.022 31.8941 39.8806 32.1213 39.6391C32.3484 39.3977 32.4704 39.0759 32.4603 38.7446L32.1548 28.7492C32.1447 28.4179 32.0033 28.1042 31.7618 27.8771C31.5203 27.6499 31.1986 27.5279 30.8672 27.538L18.8728 27.9046C18.4588 27.9172 18.1129 27.5919 18.1003 27.1778C18.0876 26.7638 18.413 26.4179 18.827 26.4053L30.8214 26.0387C31.5504 26.0164 32.2582 26.2849 32.7894 26.7846C33.3207 27.2843 33.6318 27.9744 33.6541 28.7034L33.9596 38.6988C33.9819 39.4278 33.7134 40.1356 33.2137 40.6668C32.714 41.198 32.0239 41.5092 31.2949 41.5315L17.3014 41.9591C16.5724 41.9814 15.8646 41.713 15.3334 41.2132C14.8021 40.7135 14.491 40.0234 14.4687 39.2944Z" fill="white"/>
<path d="M32 12C32 5.37258 37.3726 0 44 0C50.6274 0 56 5.37258 56 12C56 18.6274 50.6274 24 44 24C37.3726 24 32 18.6274 32 12Z" fill="white"/>
<path d="M43.9332 16.1193C43.2969 16.1193 42.7301 16.0099 42.233 15.7912C41.7386 15.5696 41.348 15.2656 41.0611 14.8793C40.777 14.4901 40.6307 14.0412 40.6222 13.5327H42.4801C42.4915 13.7457 42.5611 13.9332 42.6889 14.0952C42.8196 14.2543 42.9929 14.3778 43.2088 14.4659C43.4247 14.554 43.6676 14.598 43.9375 14.598C44.2188 14.598 44.4673 14.5483 44.6832 14.4489C44.8991 14.3494 45.0682 14.2116 45.1903 14.0355C45.3125 13.8594 45.3736 13.6562 45.3736 13.4261C45.3736 13.1932 45.3082 12.9872 45.1776 12.8082C45.0497 12.6264 44.8651 12.4844 44.6236 12.3821C44.3849 12.2798 44.1009 12.2287 43.7713 12.2287H42.9574V10.8736H43.7713C44.0497 10.8736 44.2955 10.8253 44.5085 10.7287C44.7244 10.6321 44.892 10.4986 45.0114 10.3281C45.1307 10.1548 45.1903 9.95312 45.1903 9.72301C45.1903 9.50426 45.1378 9.3125 45.0327 9.14773C44.9304 8.98011 44.7855 8.84943 44.598 8.75568C44.4134 8.66193 44.1974 8.61506 43.9503 8.61506C43.7003 8.61506 43.4716 8.66051 43.2642 8.75142C43.0568 8.83949 42.8906 8.96591 42.7656 9.13068C42.6406 9.29545 42.5739 9.48864 42.5653 9.71023H40.7969C40.8054 9.20739 40.9489 8.7642 41.2273 8.38068C41.5057 7.99716 41.8807 7.69744 42.3523 7.48153C42.8267 7.26278 43.3622 7.15341 43.9588 7.15341C44.5611 7.15341 45.0881 7.26278 45.5398 7.48153C45.9915 7.70028 46.3423 7.99574 46.5923 8.3679C46.8452 8.73722 46.9702 9.15199 46.9673 9.61222C46.9702 10.1009 46.8182 10.5085 46.5114 10.8352C46.2074 11.1619 45.8111 11.3693 45.3224 11.4574V11.5256C45.9645 11.608 46.4531 11.831 46.7884 12.1946C47.1264 12.5554 47.294 13.0071 47.2912 13.5497C47.294 14.0469 47.1506 14.4886 46.8608 14.875C46.5739 15.2614 46.1776 15.5653 45.6719 15.7869C45.1662 16.0085 44.5866 16.1193 43.9332 16.1193Z" fill="#080C16"/>
</svg>
