<svg width="48" height="48" viewBox="0 0 48 48" fill="none" xmlns="http://www.w3.org/2000/svg">
<path d="M0 14C0 6.26801 6.26801 0 14 0H34C41.732 0 48 6.26801 48 14V34C48 41.732 41.732 48 34 48H14C6.26801 48 0 41.732 0 34V14Z" fill="#0F172A"/>
<path d="M29.25 16C29.25 15.6685 29.1182 15.3506 28.8838 15.1162C28.6494 14.8818 28.3315 14.75 28 14.75H20C19.6685 14.75 19.3506 14.8818 19.1162 15.1162C18.8818 15.3506 18.75 15.6685 18.75 16V33.25H29.25V16ZM30.75 34C30.75 34.4142 30.4142 34.75 30 34.75H18C17.5858 34.75 17.25 34.4142 17.25 34V16C17.25 15.2707 17.5399 14.5714 18.0557 14.0557C18.5714 13.5399 19.2707 13.25 20 13.25H28C28.7293 13.25 29.4286 13.5399 29.9443 14.0557C30.4601 14.5714 30.75 15.2707 30.75 16V34Z" fill="white"/>
<path d="M13.25 32V26C13.25 25.2707 13.5399 24.5714 14.0557 24.0557C14.5714 23.5399 15.2707 23.25 16 23.25H18C18.4142 23.25 18.75 23.5858 18.75 24C18.75 24.4142 18.4142 24.75 18 24.75H16C15.6685 24.75 15.3506 24.8818 15.1162 25.1162C14.8818 25.3506 14.75 25.6685 14.75 26V32C14.75 32.3315 14.8818 32.6494 15.1162 32.8838C15.3506 33.1182 15.6685 33.25 16 33.25H18C18.4142 33.25 18.75 33.5858 18.75 34C18.75 34.4142 18.4142 34.75 18 34.75H16C15.2707 34.75 14.5714 34.4601 14.0557 33.9443C13.5399 33.4286 13.25 32.7293 13.25 32Z" fill="white"/>
<path d="M33.25 32V23C33.25 22.6685 33.1182 22.3506 32.8838 22.1162C32.6494 21.8818 32.3315 21.75 32 21.75H30C29.5858 21.75 29.25 21.4142 29.25 21C29.25 20.5858 29.5858 20.25 30 20.25H32C32.7293 20.25 33.4286 20.5399 33.9443 21.0557C34.4601 21.5714 34.75 22.2707 34.75 23V32C34.75 32.7293 34.4601 33.4286 33.9443 33.9443C33.4286 34.4601 32.7293 34.75 32 34.75H30C29.5858 34.75 29.25 34.4142 29.25 34C29.25 33.5858 29.5858 33.25 30 33.25H32C32.3315 33.25 32.6494 33.1182 32.8838 32.8838C33.1182 32.6494 33.25 32.3315 33.25 32Z" fill="white"/>
<path d="M26 17.25C26.4142 17.25 26.75 17.5858 26.75 18C26.75 18.4142 26.4142 18.75 26 18.75H22C21.5858 18.75 21.25 18.4142 21.25 18C21.25 17.5858 21.5858 17.25 22 17.25H26Z" fill="white"/>
<path d="M26 21.25C26.4142 21.25 26.75 21.5858 26.75 22C26.75 22.4142 26.4142 22.75 26 22.75H22C21.5858 22.75 21.25 22.4142 21.25 22C21.25 21.5858 21.5858 21.25 22 21.25H26Z" fill="white"/>
<path d="M26 25.25C26.4142 25.25 26.75 25.5858 26.75 26C26.75 26.4142 26.4142 26.75 26 26.75H22C21.5858 26.75 21.25 26.4142 21.25 26C21.25 25.5858 21.5858 25.25 22 25.25H26Z" fill="white"/>
<path d="M26 29.25C26.4142 29.25 26.75 29.5858 26.75 30C26.75 30.4142 26.4142 30.75 26 30.75H22C21.5858 30.75 21.25 30.4142 21.25 30C21.25 29.5858 21.5858 29.25 22 29.25H26Z" fill="white"/>
</svg>
