<svg width="56" height="56" viewBox="0 0 56 56" fill="none" xmlns="http://www.w3.org/2000/svg">
<path d="M0 22C0 14.268 6.26801 8 14 8H34C41.732 8 48 14.268 48 22V42C48 49.732 41.732 56 34 56H14C6.26801 56 0 49.732 0 42V22Z" fill="#0063ED"/>
<path d="M25.0825 40.625C25.2896 40.2663 25.7482 40.1435 26.1069 40.3506C26.4656 40.5577 26.5884 41.0163 26.3813 41.375C26.14 41.7929 25.7933 42.1405 25.3754 42.3818C24.9575 42.6231 24.483 42.7499 24.0004 42.75C23.5179 42.75 23.0434 42.623 22.6254 42.3818C22.2074 42.1405 21.86 41.793 21.6186 41.375C21.4115 41.0163 21.5343 40.5577 21.893 40.3506C22.2517 40.1435 22.7103 40.2663 22.9174 40.625C23.0271 40.815 23.1854 40.9723 23.3754 41.082C23.5654 41.1917 23.7811 41.25 24.0004 41.25C24.2197 41.2499 24.4355 41.1917 24.6254 41.082C24.8152 40.9724 24.9728 40.8148 25.0825 40.625Z" fill="white"/>
<path d="M33.25 28C33.25 25.8844 32.5168 24.0323 31.3877 22.4326C31.1489 22.0943 31.2292 21.6266 31.5674 21.3877C31.9057 21.1489 32.3734 21.2292 32.6123 21.5674C33.8831 23.3676 34.75 25.5158 34.75 28C34.75 28.4142 34.4142 28.75 34 28.75C33.5858 28.75 33.25 28.4142 33.25 28Z" fill="white"/>
<path d="M29.2498 28C29.2498 26.6078 28.697 25.2726 27.7126 24.2881C26.7281 23.3035 25.3921 22.75 23.9998 22.75C22.6075 22.7501 21.2723 23.3036 20.2878 24.2881C19.3033 25.2726 18.7498 26.6077 18.7498 28C18.7498 30.3279 18.3843 31.9327 17.8064 33.1562C17.2338 34.3683 16.4752 35.1507 15.8162 35.8311L15.7761 35.8906C15.7655 35.9124 15.7576 35.9359 15.7537 35.96C15.7459 36.0076 15.7528 36.0564 15.7722 36.1006C15.7917 36.1448 15.8235 36.1825 15.864 36.209C15.9046 36.2355 15.9523 36.25 16.0007 36.25H32.0007C32.0489 36.2499 32.0961 36.2361 32.1365 36.21C32.177 36.1836 32.2096 36.1458 32.2292 36.1016C32.2488 36.0573 32.2546 36.0078 32.2468 35.96C32.2391 35.9122 32.2178 35.8678 32.1853 35.832C31.5249 35.1513 30.7656 34.3687 30.1931 33.1572C29.6149 31.9335 29.2498 30.328 29.2498 28ZM30.7498 28C30.7498 30.171 31.0902 31.5444 31.5496 32.5166C32.0096 33.4902 32.6127 34.1188 33.2781 34.8047C33.2836 34.8104 33.2893 34.8164 33.2947 34.8223C33.5229 35.0731 33.673 35.385 33.7273 35.7197C33.7816 36.0545 33.7375 36.3979 33.6003 36.708C33.4631 37.0181 33.239 37.2818 32.9548 37.4668C32.7062 37.6286 32.4212 37.7238 32.1267 37.7451L31.9998 37.75H15.9998C15.6607 37.7498 15.3287 37.6511 15.0447 37.4658C14.7606 37.2805 14.536 37.0164 14.3992 36.7061C14.2624 36.3958 14.2195 36.0524 14.2742 35.7178C14.3289 35.383 14.4791 35.0709 14.7078 34.8203L14.7234 34.8037C15.3875 34.118 15.9909 33.4894 16.4509 32.5156C16.9101 31.5435 17.2498 30.1706 17.2498 28C17.2498 26.2098 17.9614 24.4924 19.2273 23.2266C20.4931 21.961 22.2098 21.2501 23.9998 21.25C25.7899 21.25 27.5073 21.9608 28.7732 23.2266C30.0391 24.4924 30.7498 26.2098 30.7498 28Z" fill="white"/>
<path d="M13.25 28C13.25 25.5158 14.1169 23.3676 15.3877 21.5674C15.6266 21.2292 16.0943 21.1489 16.4326 21.3877C16.7708 21.6266 16.8511 22.0943 16.6123 22.4326C15.4832 24.0323 14.75 25.8844 14.75 28C14.75 28.4142 14.4142 28.75 14 28.75C13.5858 28.75 13.25 28.4142 13.25 28Z" fill="white"/>
<path d="M32 12C32 5.37258 37.3726 0 44 0C50.6274 0 56 5.37258 56 12C56 18.6274 50.6274 24 44 24C37.3726 24 32 18.6274 32 12Z" fill="white"/>
<path d="M44.0568 16.1193C43.608 16.1165 43.1747 16.0412 42.7571 15.8935C42.3423 15.7457 41.9702 15.5057 41.6406 15.1733C41.3111 14.8409 41.0497 14.4006 40.8565 13.8523C40.6662 13.304 40.571 12.6307 40.571 11.8324C40.5739 11.0994 40.6577 10.4446 40.8224 9.8679C40.9901 9.28835 41.2287 8.79687 41.5384 8.39347C41.8509 7.99006 42.2244 7.68324 42.6591 7.47301C43.0938 7.25994 43.581 7.15341 44.1207 7.15341C44.7031 7.15341 45.2173 7.26705 45.6634 7.49432C46.1094 7.71875 46.4673 8.02415 46.7372 8.41051C47.0099 8.79688 47.1747 9.23011 47.2315 9.71023H45.4119C45.3409 9.40625 45.1918 9.16761 44.9645 8.99432C44.7372 8.82102 44.456 8.73438 44.1207 8.73438C43.5526 8.73438 43.1207 8.98153 42.8253 9.47585C42.5327 9.97017 42.3835 10.642 42.3778 11.4915H42.4375C42.5682 11.233 42.7443 11.0128 42.9659 10.831C43.1903 10.6463 43.4446 10.5057 43.7287 10.4091C44.0156 10.3097 44.3182 10.2599 44.6364 10.2599C45.1534 10.2599 45.6136 10.3821 46.017 10.6264C46.4205 10.8679 46.7386 11.2003 46.9716 11.6236C47.2045 12.0469 47.321 12.5312 47.321 13.0767C47.321 13.6676 47.1832 14.1932 46.9077 14.6534C46.6349 15.1136 46.2528 15.4744 45.7614 15.7358C45.2727 15.9943 44.7045 16.1222 44.0568 16.1193ZM44.0483 14.6705C44.3324 14.6705 44.5866 14.6023 44.8111 14.4659C45.0355 14.3295 45.2116 14.1449 45.3395 13.9119C45.4673 13.679 45.5312 13.4176 45.5312 13.1278C45.5312 12.8381 45.4673 12.5781 45.3395 12.348C45.2145 12.1179 45.0412 11.9347 44.8196 11.7983C44.598 11.6619 44.3452 11.5938 44.0611 11.5938C43.848 11.5938 43.6506 11.6335 43.4688 11.7131C43.2898 11.7926 43.1321 11.9034 42.9957 12.0455C42.8622 12.1875 42.7571 12.3523 42.6804 12.5398C42.6037 12.7244 42.5653 12.9219 42.5653 13.1321C42.5653 13.4134 42.6293 13.6705 42.7571 13.9034C42.8878 14.1364 43.0639 14.3224 43.2855 14.4616C43.5099 14.6009 43.7642 14.6705 44.0483 14.6705Z" fill="#080C16"/>
</svg>
