<svg width="56" height="56" viewBox="0 0 56 56" fill="none" xmlns="http://www.w3.org/2000/svg">
<path d="M0 22C0 14.268 6.26801 8 14 8H34C41.732 8 48 14.268 48 22V42C48 49.732 41.732 56 34 56H14C6.26801 56 0 49.732 0 42V22Z" fill="#0063ED"/>
<path d="M33.2451 32C33.2451 31.4545 33.1077 30.9179 32.8457 30.4395C32.5837 29.9609 32.2057 29.5556 31.7461 29.2617C31.4803 29.0917 31.3498 28.7737 31.4189 28.4658C31.5392 27.9311 31.5217 27.3741 31.3691 26.8477C31.2165 26.3213 30.9334 25.8416 30.5459 25.4541C30.1584 25.0666 29.6787 24.7834 29.1523 24.6309C28.6261 24.4783 28.0698 24.4619 27.5352 24.582C27.2272 24.6513 26.9083 24.5199 26.7383 24.2539C26.4445 23.7945 26.0398 23.4163 25.5615 23.1543C25.083 22.8923 24.5456 22.7549 24 22.7549C23.4545 22.7549 22.9179 22.8923 22.4395 23.1543C21.9609 23.4163 21.5556 23.7943 21.2617 24.2539C21.0918 24.5197 20.7737 24.6511 20.4658 24.582C19.932 24.4624 19.3761 24.4796 18.8506 24.6318C18.3252 24.7841 17.8462 25.0667 17.459 25.4531C17.0719 25.8396 16.789 26.3177 16.6357 26.8428C16.4824 27.368 16.4634 27.9238 16.582 28.458C16.6504 28.7666 16.5181 29.0849 16.251 29.2539C15.788 29.547 15.4069 29.9526 15.1426 30.4326C14.8782 30.9127 14.7393 31.4519 14.7393 32C14.7393 32.5481 14.8782 33.0872 15.1426 33.5674C15.4069 34.0474 15.788 34.453 16.251 34.7461C16.5182 34.9152 16.6506 35.2343 16.582 35.543C16.4636 36.077 16.4825 36.6321 16.6357 37.1572C16.7891 37.6825 17.0717 38.1613 17.459 38.5479C17.8462 38.9343 18.3251 39.2169 18.8506 39.3691C19.3761 39.5213 19.9319 39.5376 20.4658 39.418C20.7741 39.3489 21.0929 39.4806 21.2627 39.7471C21.5562 40.2085 21.9621 40.5884 22.4414 40.8516C22.9206 41.1147 23.4582 41.2529 24.0049 41.2529C24.5517 41.2529 25.09 41.1147 25.5693 40.8516C26.0486 40.5884 26.4536 40.2084 26.7471 39.7471C26.9165 39.4809 27.235 39.3496 27.543 39.418C28.0769 39.5365 28.6322 39.5184 29.1572 39.3652C29.6825 39.2119 30.1613 38.9284 30.5479 38.541C30.9343 38.1537 31.2169 37.675 31.3691 37.1494C31.5214 36.6238 31.5377 36.0681 31.418 35.5342C31.349 35.2264 31.4804 34.9082 31.7461 34.7383C32.2057 34.4444 32.5837 34.0391 32.8457 33.5605C33.1077 33.0821 33.2451 32.5455 33.2451 32ZM34.7451 32C34.7451 32.7973 34.545 33.5819 34.1621 34.2812C33.8605 34.8322 33.4515 35.3144 32.9639 35.7051C33.0352 36.3282 32.985 36.9608 32.8096 37.5664C32.5871 38.3346 32.1743 39.0345 31.6094 39.6006C31.0445 40.1666 30.3457 40.5806 29.5781 40.8047C28.9728 40.9814 28.3401 41.033 27.7168 40.9629C27.3261 41.4528 26.8432 41.8638 26.291 42.167C25.5905 42.5515 24.804 42.7529 24.0049 42.7529C23.2058 42.7529 22.4192 42.5516 21.7188 42.167C21.1668 41.8639 20.6835 41.4536 20.293 40.9639C19.6705 41.0348 19.0386 40.9848 18.4336 40.8096C17.6655 40.5871 16.9655 40.1743 16.3994 39.6094C15.8334 39.0445 15.4194 38.3457 15.1953 37.5781C15.0187 36.9732 14.9663 36.3407 15.0361 35.7178C14.5446 35.3273 14.1325 34.8439 13.8281 34.291C13.4418 33.5893 13.2393 32.8011 13.2393 32C13.2393 31.1989 13.4418 30.4107 13.8281 29.709C14.1326 29.156 14.5444 28.6718 15.0361 28.2812C14.9665 27.6587 15.0188 27.0265 15.1953 26.4219C15.4194 25.6543 15.8334 24.9554 16.3994 24.3906C16.9655 23.8257 17.6654 23.4129 18.4336 23.1904C19.0388 23.0151 19.6712 22.964 20.2939 23.0352C20.6845 22.5477 21.168 22.1405 21.7188 21.8389C22.4181 21.456 23.2027 21.2549 24 21.2549C24.7973 21.2549 25.5819 21.4559 26.2812 21.8389C26.8319 22.1403 27.3145 22.5479 27.7051 23.0352C28.3293 22.9634 28.9636 23.0146 29.5703 23.1904C30.3395 23.4134 31.0401 23.8272 31.6064 24.3936C32.1729 24.96 32.5866 25.6612 32.8096 26.4307C32.9853 27.0369 33.0364 27.6702 32.9648 28.2939C33.4524 28.6846 33.8605 29.1678 34.1621 29.7188C34.545 30.4181 34.7451 31.2027 34.7451 32Z" fill="white"/>
<path d="M26.4699 29.4698C26.7628 29.1769 27.2376 29.1769 27.5305 29.4698C27.8234 29.7627 27.8234 30.2375 27.5305 30.5304L23.5305 34.5304C23.2376 34.8233 22.7628 34.8233 22.4699 34.5304L20.4699 32.5304C20.177 32.2375 20.177 31.7627 20.4699 31.4698C20.7445 31.1952 21.1792 31.1778 21.4738 31.4181L21.5305 31.4698L23.0002 32.9396L26.4699 29.4698Z" fill="white"/>
<path d="M32 12C32 5.37258 37.3726 0 44 0C50.6274 0 56 5.37258 56 12C56 18.6274 50.6274 24 44 24C37.3726 24 32 18.6274 32 12Z" fill="white"/>
<path d="M43.8949 16.1193C43.2926 16.1193 42.7557 16.0085 42.2841 15.7869C41.8153 15.5653 41.4432 15.2599 41.1676 14.8707C40.892 14.4815 40.7486 14.0355 40.7372 13.5327H42.527C42.5469 13.8707 42.6889 14.1449 42.9531 14.3551C43.2173 14.5653 43.5312 14.6705 43.8949 14.6705C44.1847 14.6705 44.4403 14.6065 44.6619 14.4787C44.8864 14.348 45.0611 14.1676 45.1861 13.9375C45.3139 13.7045 45.3778 13.4375 45.3778 13.1364C45.3778 12.8295 45.3125 12.5597 45.1818 12.3267C45.054 12.0937 44.8764 11.9119 44.6491 11.7812C44.4219 11.6506 44.1619 11.5838 43.8693 11.581C43.6136 11.581 43.3651 11.6335 43.1236 11.7386C42.8849 11.8437 42.6989 11.9872 42.5653 12.169L40.9247 11.875L41.3381 7.27273H46.6733V8.78125H42.8594L42.6335 10.9673H42.6847C42.8381 10.7514 43.0696 10.5724 43.3793 10.4304C43.6889 10.2884 44.0355 10.2173 44.419 10.2173C44.9446 10.2173 45.4134 10.3409 45.8253 10.5881C46.2372 10.8352 46.5625 11.1747 46.8011 11.6065C47.0398 12.0355 47.1577 12.5298 47.1548 13.0895C47.1577 13.6776 47.0213 14.2003 46.7457 14.6577C46.473 15.1122 46.0909 15.4702 45.5994 15.7315C45.1108 15.9901 44.5426 16.1193 43.8949 16.1193Z" fill="#080C16"/>
</svg>
