<svg width="56" height="56" viewBox="0 0 56 56" fill="none" xmlns="http://www.w3.org/2000/svg">
<path d="M0 22C0 14.268 6.26801 8 14 8H34C41.732 8 48 14.268 48 22V42C48 49.732 41.732 56 34 56H14C6.26801 56 0 49.732 0 42V22Z" fill="#0063ED"/>
<path d="M33.4697 28.4697C33.7626 28.1768 34.2374 28.1768 34.5303 28.4697C34.8232 28.7626 34.8232 29.2374 34.5303 29.5303L30.5303 33.5303C30.2374 33.8232 29.7626 33.8232 29.4697 33.5303L27.4697 31.5303C27.1768 31.2374 27.1768 30.7626 27.4697 30.4697C27.7626 30.1768 28.2374 30.1768 28.5303 30.4697L30 31.9395L33.4697 28.4697Z" fill="white"/>
<path d="M27.25 41V39C27.25 38.138 26.9073 37.3116 26.2979 36.7021C25.6884 36.0927 24.862 35.75 24 35.75H18C17.138 35.75 16.3116 36.0927 15.7021 36.7021C15.0927 37.3116 14.75 38.138 14.75 39V41C14.75 41.4142 14.4142 41.75 14 41.75C13.5858 41.75 13.25 41.4142 13.25 41V39C13.25 37.7402 13.7508 36.5324 14.6416 35.6416C15.5324 34.7508 16.7402 34.25 18 34.25H24C25.2598 34.25 26.4676 34.7508 27.3584 35.6416C28.2492 36.5324 28.75 37.7402 28.75 39V41C28.75 41.4142 28.4142 41.75 28 41.75C27.5858 41.75 27.25 41.4142 27.25 41Z" fill="white"/>
<path d="M24.25 27C24.25 25.2051 22.7949 23.75 21 23.75C19.2051 23.75 17.75 25.2051 17.75 27C17.75 28.7949 19.2051 30.25 21 30.25C22.7949 30.25 24.25 28.7949 24.25 27ZM25.75 27C25.75 29.6234 23.6234 31.75 21 31.75C18.3766 31.75 16.25 29.6234 16.25 27C16.25 24.3766 18.3766 22.25 21 22.25C23.6234 22.25 25.75 24.3766 25.75 27Z" fill="white"/>
<path d="M32 12C32 5.37258 37.3726 0 44 0C50.6274 0 56 5.37258 56 12C56 18.6274 50.6274 24 44 24C37.3726 24 32 18.6274 32 12Z" fill="white"/>
<path d="M45.5043 7.27273V16H43.6591V9.02415H43.608L41.6094 10.277V8.64062L43.7699 7.27273H45.5043Z" fill="#0F172A"/>
</svg>
