<svg width="48" height="48" viewBox="0 0 48 48" fill="none" xmlns="http://www.w3.org/2000/svg">
<path d="M0 14C0 6.26801 6.26801 0 14 0H34C41.732 0 48 6.26801 48 14V34C48 41.732 41.732 48 34 48H14C6.26801 48 0 41.732 0 34V14Z" fill="#0F172A"/>
<path d="M31 33.25C31.4142 33.25 31.75 33.5858 31.75 34C31.75 34.4142 31.4142 34.75 31 34.75H17C16.5858 34.75 16.25 34.4142 16.25 34C16.25 33.5858 16.5858 33.25 17 33.25H31Z" fill="white"/>
<path d="M31 13.25C31.4142 13.25 31.75 13.5858 31.75 14C31.75 14.4142 31.4142 14.75 31 14.75H17C16.5858 14.75 16.25 14.4142 16.25 14C16.25 13.5858 16.5858 13.25 17 13.25H31Z" fill="white"/>
<path d="M28.25 34V29.8281C28.2499 29.5381 28.149 29.2585 27.9668 29.0361L27.8838 28.9443L24 25.0605L20.1162 28.9443C19.8818 29.1787 19.7501 29.4966 19.75 29.8281V34C19.75 34.4142 19.4142 34.75 19 34.75C18.5858 34.75 18.25 34.4142 18.25 34V29.8281C18.2502 29.0989 18.54 28.3994 19.0557 27.8838L23.4697 23.4697L23.5264 23.418C23.8209 23.1777 24.2557 23.1951 24.5303 23.4697L28.9443 27.8838C29.46 28.3994 29.7498 29.0989 29.75 29.8281V34C29.75 34.4142 29.4142 34.75 29 34.75C28.5858 34.75 28.25 34.4142 28.25 34Z" fill="white"/>
<path d="M18.25 18.1719V14C18.25 13.5858 18.5858 13.25 19 13.25C19.4142 13.25 19.75 13.5858 19.75 14V18.1719L19.7559 18.2949C19.7842 18.5812 19.911 18.8505 20.1162 19.0557L24 22.9395L27.8838 19.0557L27.9668 18.9639C28.1231 18.7731 28.2198 18.5403 28.2441 18.2949L28.25 18.1719V14C28.25 13.5858 28.5858 13.25 29 13.25C29.4142 13.25 29.75 13.5858 29.75 14V18.1719C29.7498 18.9011 29.46 19.6006 28.9443 20.1162L24.5303 24.5303C24.3896 24.6709 24.1989 24.75 24 24.75C23.8011 24.75 23.6104 24.6709 23.4697 24.5303L19.0557 20.1162C18.54 19.6006 18.2502 18.9011 18.25 18.1719Z" fill="white"/>
</svg>
