<svg width="56" height="56" viewBox="0 0 56 56" fill="none" xmlns="http://www.w3.org/2000/svg">
<path d="M0 22C0 14.268 6.26801 8 14 8H34C41.732 8 48 14.268 48 22V42C48 49.732 41.732 56 34 56H14C6.26801 56 0 49.732 0 42V22Z" fill="#0063ED"/>
<path d="M33.25 36C33.25 35.3096 32.6904 34.75 32 34.75H28C27.3096 34.75 26.75 35.3096 26.75 36V40C26.75 40.6904 27.3096 41.25 28 41.25H32C32.6904 41.25 33.25 40.6904 33.25 40V36ZM34.75 40C34.75 41.5188 33.5188 42.75 32 42.75H28C26.4812 42.75 25.25 41.5188 25.25 40V36C25.25 34.4812 26.4812 33.25 28 33.25H32C33.5188 33.25 34.75 34.4812 34.75 36V40Z" fill="white"/>
<path d="M21.25 24C21.25 23.3096 20.6904 22.75 20 22.75H16C15.3096 22.75 14.75 23.3096 14.75 24V28C14.75 28.6904 15.3096 29.25 16 29.25H20C20.6904 29.25 21.25 28.6904 21.25 28V24ZM22.75 28C22.75 29.5188 21.5188 30.75 20 30.75H16C14.4812 30.75 13.25 29.5188 13.25 28V24C13.25 22.4812 14.4812 21.25 16 21.25H20C21.5188 21.25 22.75 22.4812 22.75 24V28Z" fill="white"/>
<path d="M18.25 35V34C18.25 33.5858 18.5858 33.25 19 33.25C19.4142 33.25 19.75 33.5858 19.75 34V35C19.75 35.3315 19.8818 35.6494 20.1162 35.8838C20.3506 36.1182 20.6685 36.25 21 36.25H22C22.4142 36.25 22.75 36.5858 22.75 37C22.75 37.4142 22.4142 37.75 22 37.75H21C20.2707 37.75 19.5714 37.4601 19.0557 36.9443C18.5399 36.4286 18.25 35.7293 18.25 35Z" fill="white"/>
<path d="M28.25 30V29C28.25 28.6685 28.1182 28.3506 27.8838 28.1162C27.6494 27.8818 27.3315 27.75 27 27.75H26C25.5858 27.75 25.25 27.4142 25.25 27C25.25 26.5858 25.5858 26.25 26 26.25H27C27.7293 26.25 28.4286 26.5399 28.9443 27.0557C29.4601 27.5714 29.75 28.2707 29.75 29V30C29.75 30.4142 29.4142 30.75 29 30.75C28.5858 30.75 28.25 30.4142 28.25 30Z" fill="white"/>
<path d="M32 12C32 5.37258 37.3726 0 44 0C50.6274 0 56 5.37258 56 12C56 18.6274 50.6274 24 44 24C37.3726 24 32 18.6274 32 12Z" fill="white"/>
<path d="M40.0753 14.4659V13.0128L43.7188 7.27273H44.9716V9.28409H44.2301L41.9332 12.919V12.9872H47.1108V14.4659H40.0753ZM44.2642 16V14.0227L44.2983 13.3793V7.27273H46.0284V16H44.2642Z" fill="#080C16"/>
</svg>
