<svg width="50" height="50" viewBox="0 0 50 50" fill="none" xmlns="http://www.w3.org/2000/svg">
<path d="M0.427666 15.4598C0.191473 7.7314 6.26509 1.27484 13.9935 1.03864L33.9841 0.427692C41.7125 0.191498 48.1691 6.26511 48.4053 13.9935L49.0162 33.9842C49.2524 41.7125 43.1788 48.1691 35.4504 48.4053L15.4597 49.0162C7.73137 49.2524 1.27481 43.1788 1.03862 35.4504L0.427666 15.4598Z" fill="#0063ED"/>
<path d="M29.7676 25.8183C30.1816 25.8056 30.5275 26.131 30.5402 26.545C30.5528 26.959 30.2275 27.3049 29.8134 27.3176L29.8037 27.3179C29.3897 27.3305 29.0438 27.0052 29.0311 26.5911C29.0185 26.1771 29.3438 25.8312 29.7579 25.8186L29.7676 25.8183Z" fill="white"/>
<path d="M15.1904 32.0165L14.7627 18.023C14.7404 17.294 15.0089 16.5862 15.5086 16.055C16.0083 15.5237 16.6984 15.2126 17.4274 15.1903L31.4209 14.7626C31.8349 14.75 32.1808 15.0753 32.1935 15.4894C32.2061 15.9034 31.8807 16.2493 31.4667 16.2619L17.4732 16.6896C17.1419 16.6997 16.8282 16.8412 16.6011 17.0826C16.3739 17.3241 16.2519 17.6458 16.262 17.9772L16.6897 31.9707C16.6998 32.302 16.8412 32.6157 17.0827 32.8428C17.3242 33.07 17.6459 33.192 17.9773 33.1819L31.9707 32.7542C32.3021 32.7441 32.6158 32.6027 32.8429 32.3612C33.0701 32.1197 33.1921 31.798 33.182 31.4666L32.8765 21.4713C32.8664 21.1399 32.7249 20.8262 32.4835 20.5991C32.242 20.3719 31.9203 20.2499 31.5889 20.2601L19.5945 20.6266C19.1805 20.6393 18.8346 20.3139 18.8219 19.8999C18.8093 19.4859 19.1347 19.14 19.5487 19.1273L31.5431 18.7608C32.2721 18.7385 32.9799 19.0069 33.5111 19.5066C34.0424 20.0064 34.3535 20.6965 34.3758 21.4255L34.6813 31.4208C34.7036 32.1498 34.4351 32.8576 33.9354 33.3888C33.4357 33.9201 32.7456 34.2312 32.0166 34.2535L18.0231 34.6812C17.2941 34.7035 16.5863 34.435 16.0551 33.9353C15.5238 33.4356 15.2127 32.7455 15.1904 32.0165Z" fill="white"/>
</svg>
